<?xml version="1.0" encoding="UTF-8"?>
<svg width="309px" height="109px" viewBox="0 0 309 109" version="1.1" xmlns="http://www.w3.org/2000/svg" xmlns:xlink="http://www.w3.org/1999/xlink">
    <!-- Generator: Sketch 55.2 (78181) - https://sketchapp.com -->
    <title>Group</title>
    <desc>Created with Sketch.</desc>
    <g id="Page-1" stroke="none" stroke-width="1" fill="none" fill-rule="evenodd">
        <g id="Artboard-Copy" transform="translate(-1505.000000, -894.000000)">
            <g id="Group" transform="translate(1502.000000, 894.000000)">
                <path d="M47.232,89.688 L54.072,97.536 L47.376,103.08 L40.104,94.728 C36.72,96.312 32.904,97.248 28.8,97.248 C14.688,97.248 3.456,86.592 3.456,72.12 C3.456,57.648 14.688,46.992 28.8,46.992 C42.912,46.992 54.144,57.648 54.144,72.12 C54.144,79.104 51.552,85.224 47.232,89.688 Z M33.768,87.528 L27.936,80.832 L34.704,75.288 L40.896,82.416 C42.768,79.752 43.776,76.224 43.776,72.12 C43.776,62.976 37.728,55.992 28.8,55.992 C19.872,55.992 13.824,62.976 13.824,72.12 C13.824,81.264 19.872,88.248 28.8,88.248 C30.6,88.248 32.256,88.032 33.768,87.528 Z M69.048,97.248 C62.352,97.248 57.6,92.352 57.6,83.64 L57.6,65.928 L67.32,65.928 L67.32,82.992 C67.32,86.448 68.976,88.464 72.432,88.464 C76.32,88.464 78.48,86.232 78.48,82.344 L78.48,65.928 L88.2,65.928 L88.2,96.6 L78.48,96.6 L78.696,91.56 C76.824,95.232 73.296,97.248 69.048,97.248 Z M101.088,84.216 C102.024,87.384 104.616,89.184 109.008,89.184 C112.536,89.184 115.2,87.816 116.712,86.736 L122.256,92.712 C119.304,95.304 115.56,97.248 109.152,97.248 C98.208,97.248 91.152,90.624 91.152,81.192 C91.152,71.904 98.568,65.28 108.072,65.28 C119.088,65.28 125.064,73.488 124.344,84.216 L101.088,84.216 Z M100.944,78.6 L114.552,78.6 C114.12,75.216 111.96,73.2 108.144,73.2 C104.328,73.2 101.736,74.928 100.944,78.6 Z M136.224,84.216 C137.16,87.384 139.752,89.184 144.144,89.184 C147.672,89.184 150.336,87.816 151.848,86.736 L157.392,92.712 C154.44,95.304 150.696,97.248 144.288,97.248 C133.344,97.248 126.288,90.624 126.288,81.192 C126.288,71.904 133.704,65.28 143.208,65.28 C154.224,65.28 160.2,73.488 159.48,84.216 L136.224,84.216 Z M136.08,78.6 L149.688,78.6 C149.256,75.216 147.096,73.2 143.28,73.2 C139.464,73.2 136.872,74.928 136.08,78.6 Z M162.504,96.6 L162.504,65.928 L172.224,65.928 L172.08,71.472 C174.312,66.432 177.912,65.28 181.08,65.28 C183.096,65.28 184.608,65.856 185.832,66.504 L182.736,75.36 C181.512,74.784 180.36,74.424 178.992,74.424 C174.6,74.424 172.224,76.44 172.224,82.992 L172.224,96.6 L162.504,96.6 Z" id="Queer" fill="#FFFFFF" fill-rule="nonzero"></path>
                <g id="Group-2" transform="translate(203.000000, 0.000000)">
                    <rect id="Rectangle" fill="#FF5D7D" x="0" y="0" width="109" height="18"></rect>
                    <rect id="Rectangle-Copy" fill="#FF764E" x="0" y="18" width="109" height="18"></rect>
                    <rect id="Rectangle-Copy-2" fill="#FFC144" x="0" y="36" width="109" height="19"></rect>
                    <rect id="Rectangle-Copy-3" fill="#88DF8E" x="0" y="54" width="109" height="19"></rect>
                    <rect id="Rectangle-Copy-4" fill="#00CCF2" x="0" y="73" width="109" height="18"></rect>
                    <rect id="Rectangle-Copy-5" fill="#B278D3" x="0" y="91" width="109" height="18"></rect>
                    <path d="M42.68,97.648 C34.616,97.648 29.936,93.472 27.56,88.432 L35.768,83.464 C37.352,86.272 38.792,88.648 42.248,88.648 C45.56,88.648 47.648,87.352 47.648,82.312 L47.648,48.04 L57.728,48.04 L57.728,82.456 C57.728,92.896 51.608,97.648 42.68,97.648 Z M81.56,97.648 C72.2,97.648 66.152,93.184 63.2,87.352 L71.408,82.6 C73.568,86.128 76.376,88.72 81.344,88.72 C85.52,88.72 88.184,86.632 88.184,83.752 C88.184,80.296 85.448,79.072 80.84,77.056 L78.32,75.976 C71.048,72.88 66.224,68.992 66.224,60.784 C66.224,53.224 71.984,47.464 80.984,47.464 C87.392,47.464 92,49.696 95.312,55.528 L87.464,60.568 C85.736,57.472 83.864,56.248 80.984,56.248 C78.032,56.248 76.16,58.12 76.16,60.568 C76.16,63.592 78.032,64.816 82.352,66.688 L84.872,67.768 C93.44,71.44 98.264,75.184 98.264,83.608 C98.264,92.68 91.136,97.648 81.56,97.648 Z" id="JS" fill="#FFFFFF" fill-rule="nonzero"></path>
                </g>
            </g>
        </g>
    </g>
</svg>